<svg width="24" height="24" viewBox="0 0 24 24" fill="none" xmlns="http://www.w3.org/2000/svg">
<path d="M6.25176 15.8244C6.38272 15.8367 6.51481 15.823 6.64046 15.7841C6.76611 15.7452 6.88286 15.6819 6.98401 15.5978C7.08517 15.5138 7.16874 15.4105 7.22994 15.2941C7.29115 15.1777 7.32879 15.0503 7.3407 14.9194L7.85689 9.26957L16.2432 17.6559C16.4307 17.8434 16.6851 17.9487 16.9503 17.9487C17.2155 17.9487 17.4699 17.8434 17.6574 17.6559C17.8449 17.4683 17.9503 17.214 17.9503 16.9487C17.9503 16.6835 17.8449 16.4292 17.6574 16.2416L9.2711 7.85535L14.9209 7.33917C15.0518 7.32709 15.1791 7.28935 15.2954 7.2281C15.4118 7.16684 15.5149 7.08326 15.599 6.98215C15.683 6.88103 15.7463 6.76435 15.7853 6.63876C15.8242 6.51318 15.8381 6.38115 15.826 6.25022C15.8139 6.11929 15.7762 5.99202 15.7149 5.87568C15.6537 5.75933 15.5701 5.65619 15.469 5.57215C15.3678 5.4881 15.2512 5.42479 15.1256 5.38584C15 5.34689 14.868 5.33305 14.737 5.34513L6.95886 6.05223L6.78916 6.09466L6.64774 6.13709C6.4207 6.23769 6.23922 6.41917 6.13862 6.6462L6.09619 6.78762L6.05377 6.95733L5.34666 14.7355C5.33442 14.8665 5.34814 14.9986 5.38702 15.1242C5.42591 15.2499 5.48921 15.3666 5.57328 15.4678C5.65736 15.5689 5.76056 15.6525 5.87699 15.7137C5.99341 15.7749 6.12076 15.8125 6.25176 15.8244Z" fill="#9FA5C0"/>
</svg>
